<svg width="18" height="19" viewBox="0 0 18 19" fill="none" xmlns="http://www.w3.org/2000/svg">
<path d="M15.3148 9.77751C15.9673 10.04 16.3723 10.8125 16.2223 11.495L15.9148 12.89C15.3823 15.29 13.4998 17 10.7848 17H7.2148C4.4998 17 2.61731 15.29 2.08481 12.89L1.7773 11.495C1.6273 10.8125 2.0323 10.04 2.6848 9.77751L3.74981 9.35L7.88232 7.69251C8.60232 7.40751 9.3973 7.40751 10.1173 7.69251L14.2498 9.35L15.3148 9.77751Z" stroke="#191825" stroke-opacity="0.75" stroke-width="1.125" stroke-linecap="round" stroke-linejoin="round"/>
<path d="M9 17V8" stroke="#191825" stroke-opacity="0.75" stroke-width="1.125" stroke-linecap="round" stroke-linejoin="round"/>
<path d="M14.25 6.5V9.34999L10.1175 7.6925C9.39749 7.4075 8.60251 7.4075 7.88251 7.6925L3.75 9.34999V6.5C3.75 5.2625 4.7625 4.25 6 4.25H12C13.2375 4.25 14.25 5.2625 14.25 6.5Z" stroke="#191825" stroke-opacity="0.75" stroke-width="1.125" stroke-linecap="round" stroke-linejoin="round"/>
<path d="M10.875 4.25H7.125V2.75C7.125 2.3375 7.4625 2 7.875 2H10.125C10.5375 2 10.875 2.3375 10.875 2.75V4.25Z" stroke="#191825" stroke-opacity="0.75" stroke-width="1.125" stroke-linecap="round" stroke-linejoin="round"/>
</svg>
