<svg width="76" height="24" viewBox="0 0 76 24" fill="none" xmlns="http://www.w3.org/2000/svg">
<path d="M21.7724 18.7033C21.4062 19.5418 20.9727 20.3136 20.4704 21.0232C19.7857 21.9906 19.2251 22.6602 18.793 23.032C18.1233 23.6424 17.4057 23.955 16.6373 23.9728C16.0857 23.9728 15.4204 23.8172 14.646 23.5017C13.8691 23.1876 13.1551 23.032 12.5023 23.032C11.8176 23.032 11.0833 23.1876 10.2979 23.5017C9.51122 23.8172 8.87751 23.9816 8.393 23.9979C7.65614 24.0291 6.92168 23.7076 6.18856 23.032C5.72064 22.6276 5.13537 21.9343 4.43424 20.9521C3.68198 19.9033 3.06353 18.687 2.57901 17.3004C2.06012 15.8026 1.8 14.3523 1.8 12.9482C1.8 11.3398 2.15071 9.95259 2.85319 8.79011C3.40527 7.85636 4.13974 7.11979 5.05898 6.57906C5.97822 6.03834 6.97146 5.76279 8.04109 5.74516C8.62636 5.74516 9.39387 5.92456 10.3476 6.27715C11.2987 6.63091 11.9094 6.81031 12.1772 6.81031C12.3773 6.81031 13.0557 6.60054 14.2058 6.18233C15.2934 5.79449 16.2113 5.63391 16.9632 5.69716C19.0008 5.86012 20.5316 6.6561 21.5497 8.09013C19.7274 9.18432 18.8259 10.7169 18.8439 12.6829C18.8603 14.2142 19.4209 15.4886 20.5227 16.5004C21.022 16.97 21.5796 17.333 22.2 17.5907C22.0655 17.9774 21.9234 18.3477 21.7724 18.7033V18.7033ZM17.0993 0.480137C17.0993 1.68041 16.6567 2.8011 15.7747 3.8384C14.7103 5.07155 13.4229 5.78412 12.0268 5.67168C12.009 5.52769 11.9987 5.37614 11.9987 5.21688C11.9987 4.06462 12.5048 2.83147 13.4038 1.82321C13.8525 1.3127 14.4233 0.888228 15.1155 0.549615C15.8061 0.216055 16.4594 0.031589 17.0738 0C17.0918 0.160458 17.0993 0.320926 17.0993 0.480121V0.480137Z" fill="#111827"/>
<path d="M41.3808 14.012H37.3068L36.6068 16H34.9408L38.4268 6.256H40.2748L43.7608 16H42.0808L41.3808 14.012ZM40.9328 12.71L39.3508 8.188L37.7548 12.71H40.9328ZM46.8726 9.42C47.1432 9.06533 47.5119 8.76667 47.9786 8.524C48.4452 8.28133 48.9726 8.16 49.5606 8.16C50.2326 8.16 50.8439 8.328 51.3946 8.664C51.9546 8.99067 52.3932 9.45267 52.7106 10.05C53.0279 10.6473 53.1866 11.3333 53.1866 12.108C53.1866 12.8827 53.0279 13.578 52.7106 14.194C52.3932 14.8007 51.9546 15.2767 51.3946 15.622C50.8439 15.958 50.2326 16.126 49.5606 16.126C48.9726 16.126 48.4499 16.0093 47.9926 15.776C47.5352 15.5333 47.1619 15.2347 46.8726 14.88V19.668H45.2766V8.286H46.8726V9.42ZM51.5626 12.108C51.5626 11.576 51.4506 11.1187 51.2266 10.736C51.0119 10.344 50.7226 10.05 50.3586 9.854C50.0039 9.64867 49.6212 9.546 49.2106 9.546C48.8092 9.546 48.4266 9.64867 48.0626 9.854C47.7079 10.0593 47.4186 10.358 47.1946 10.75C46.9799 11.142 46.8726 11.604 46.8726 12.136C46.8726 12.668 46.9799 13.1347 47.1946 13.536C47.4186 13.928 47.7079 14.2267 48.0626 14.432C48.4266 14.6373 48.8092 14.74 49.2106 14.74C49.6212 14.74 50.0039 14.6373 50.3586 14.432C50.7226 14.2173 51.0119 13.9093 51.2266 13.508C51.4506 13.1067 51.5626 12.64 51.5626 12.108ZM56.3608 9.42C56.6315 9.06533 57.0002 8.76667 57.4668 8.524C57.9335 8.28133 58.4608 8.16 59.0488 8.16C59.7208 8.16 60.3322 8.328 60.8828 8.664C61.4428 8.99067 61.8815 9.45267 62.1988 10.05C62.5162 10.6473 62.6748 11.3333 62.6748 12.108C62.6748 12.8827 62.5162 13.578 62.1988 14.194C61.8815 14.8007 61.4428 15.2767 60.8828 15.622C60.3322 15.958 59.7208 16.126 59.0488 16.126C58.4608 16.126 57.9382 16.0093 57.4808 15.776C57.0235 15.5333 56.6502 15.2347 56.3608 14.88V19.668H54.7648V8.286H56.3608V9.42ZM61.0508 12.108C61.0508 11.576 60.9388 11.1187 60.7148 10.736C60.5002 10.344 60.2108 10.05 59.8468 9.854C59.4922 9.64867 59.1095 9.546 58.6988 9.546C58.2975 9.546 57.9148 9.64867 57.5508 9.854C57.1962 10.0593 56.9068 10.358 56.6828 10.75C56.4682 11.142 56.3608 11.604 56.3608 12.136C56.3608 12.668 56.4682 13.1347 56.6828 13.536C56.9068 13.928 57.1962 14.2267 57.5508 14.432C57.9148 14.6373 58.2975 14.74 58.6988 14.74C59.1095 14.74 59.4922 14.6373 59.8468 14.432C60.2108 14.2173 60.5002 13.9093 60.7148 13.508C60.9388 13.1067 61.0508 12.64 61.0508 12.108ZM65.8491 5.64V16H64.2531V5.64H65.8491ZM75.0145 11.954C75.0145 12.2433 74.9959 12.5047 74.9585 12.738H69.0645C69.1112 13.354 69.3399 13.8487 69.7505 14.222C70.1612 14.5953 70.6652 14.782 71.2625 14.782C72.1212 14.782 72.7279 14.4227 73.0825 13.704H74.8045C74.5712 14.4133 74.1465 14.9967 73.5305 15.454C72.9239 15.902 72.1679 16.126 71.2625 16.126C70.5252 16.126 69.8625 15.9627 69.2745 15.636C68.6959 15.3 68.2385 14.8333 67.9025 14.236C67.5759 13.6293 67.4125 12.9293 67.4125 12.136C67.4125 11.3427 67.5712 10.6473 67.8885 10.05C68.2152 9.44333 68.6679 8.97667 69.2465 8.65C69.8345 8.32333 70.5065 8.16 71.2625 8.16C71.9905 8.16 72.6392 8.31867 73.2085 8.636C73.7779 8.95333 74.2212 9.40133 74.5385 9.98C74.8559 10.5493 75.0145 11.2073 75.0145 11.954ZM73.3485 11.45C73.3392 10.862 73.1292 10.3907 72.7185 10.036C72.3079 9.68133 71.7992 9.504 71.1925 9.504C70.6419 9.504 70.1705 9.68133 69.7785 10.036C69.3865 10.3813 69.1532 10.8527 69.0785 11.45H73.3485Z" fill="#111827"/>
</svg>
