<svg width="18" height="19" viewBox="0 0 18 19" fill="none" xmlns="http://www.w3.org/2000/svg">
<path d="M14.895 6.56744C14.895 6.88244 14.8725 7.18994 14.835 7.48244C14.49 7.33244 14.115 7.24995 13.7175 7.24995C12.8025 7.24995 11.9925 7.69244 11.49 8.36744C10.98 7.69244 10.17 7.24995 9.255 7.24995C7.7175 7.24995 6.4725 8.50244 6.4725 10.0549C6.4725 12.0649 7.5375 13.6024 8.7225 14.6449C8.685 14.6674 8.64751 14.675 8.61001 14.69C8.38501 14.7725 8.01 14.7725 7.785 14.69C5.8425 14.0225 1.5 11.2624 1.5 6.56744C1.5 4.49744 3.16499 2.82495 5.21999 2.82495C6.44249 2.82495 7.52249 3.40994 8.19749 4.31744C8.87999 3.40994 9.96 2.82495 11.175 2.82495C13.23 2.82495 14.895 4.49744 14.895 6.56744Z" stroke="#191825" stroke-opacity="0.75" stroke-width="1.125" stroke-linecap="round" stroke-linejoin="round"/>
<path d="M16.4997 10.055C16.4997 13.565 13.2522 15.635 11.7972 16.13C11.6247 16.19 11.3472 16.19 11.1747 16.13C10.5522 15.92 9.59967 15.4175 8.72217 14.645C7.53717 13.6025 6.47217 12.065 6.47217 10.055C6.47217 8.50249 7.71716 7.25 9.25466 7.25C10.1697 7.25 10.9797 7.69249 11.4897 8.36749C11.9922 7.69249 12.8022 7.25 13.7172 7.25C14.1147 7.25 14.4897 7.3325 14.8347 7.4825C15.8172 7.9175 16.4997 8.89999 16.4997 10.055Z" stroke="#191825" stroke-opacity="0.75" stroke-width="1.125" stroke-linecap="round" stroke-linejoin="round"/>
</svg>
