<svg width="85" height="24" viewBox="0 0 85 24" fill="none" xmlns="http://www.w3.org/2000/svg">
<g clip-path="url(#clip0_109_1457)">
<path d="M23.9886 12.2247C23.9886 11.2414 23.9069 10.5239 23.7302 9.77979H12.2391V14.2178H18.9841C18.8482 15.3207 18.1138 16.9816 16.4819 18.0977L16.459 18.2463L20.0923 20.9965L20.344 21.021C22.6558 18.9349 23.9886 15.8654 23.9886 12.2247" fill="#4285F4"/>
<path d="M12.2391 23.9173C15.5436 23.9173 18.3177 22.8543 20.344 21.0206L16.4819 18.0973C15.4484 18.8016 14.0613 19.2932 12.2391 19.2932C9.00254 19.2932 6.25557 17.2071 5.27636 14.3237L5.13282 14.3356L1.35489 17.1925L1.30548 17.3267C3.31811 21.2332 7.4522 23.9173 12.2391 23.9173Z" fill="#27A376"/>
<path d="M5.27634 14.3238C5.01797 13.5797 4.86844 12.7824 4.86844 11.9586C4.86844 11.1347 5.01797 10.3375 5.26275 9.59342L5.25591 9.43495L1.43062 6.53223L1.30547 6.59039C0.475969 8.21149 0 10.0319 0 11.9586C0 13.8853 0.475969 15.7056 1.30547 17.3267L5.27634 14.3238" fill="#FBBC05"/>
<path d="M12.2391 4.62403C14.5373 4.62403 16.0875 5.59401 16.9715 6.40461L20.4256 3.10928C18.3042 1.1826 15.5436 0 12.2391 0C7.4522 0 3.31811 2.68406 1.30548 6.59056L5.26276 9.59359C6.25557 6.7102 9.00254 4.62403 12.2391 4.62403" fill="#EB4335"/>
</g>
<path d="M42.34 9.07C42.088 8.58467 41.738 8.22067 41.29 7.978C40.842 7.726 40.324 7.6 39.736 7.6C39.092 7.6 38.518 7.74467 38.014 8.034C37.51 8.32333 37.1134 8.734 36.824 9.266C36.544 9.798 36.404 10.414 36.404 11.114C36.404 11.814 36.544 12.4347 36.824 12.976C37.1134 13.508 37.51 13.9187 38.014 14.208C38.518 14.4973 39.092 14.642 39.736 14.642C40.604 14.642 41.3087 14.3993 41.85 13.914C42.3914 13.4287 42.7227 12.7707 42.844 11.94H39.19V10.666H44.552V11.912C44.4494 12.668 44.1787 13.3633 43.74 13.998C43.3107 14.6327 42.746 15.1413 42.046 15.524C41.3554 15.8973 40.5854 16.084 39.736 16.084C38.8214 16.084 37.986 15.874 37.23 15.454C36.474 15.0247 35.872 14.432 35.424 13.676C34.9854 12.92 34.766 12.066 34.766 11.114C34.766 10.162 34.9854 9.308 35.424 8.552C35.872 7.796 36.474 7.208 37.23 6.788C37.9954 6.35867 38.8307 6.144 39.736 6.144C40.772 6.144 41.6914 6.40067 42.494 6.914C43.306 7.418 43.894 8.13667 44.258 9.07H42.34ZM49.4722 16.126C48.7442 16.126 48.0862 15.9627 47.4982 15.636C46.9102 15.3 46.4482 14.8333 46.1122 14.236C45.7762 13.6293 45.6082 12.9293 45.6082 12.136C45.6082 11.352 45.7808 10.6567 46.1262 10.05C46.4715 9.44333 46.9428 8.97667 47.5402 8.65C48.1375 8.32333 48.8048 8.16 49.5422 8.16C50.2795 8.16 50.9468 8.32333 51.5442 8.65C52.1415 8.97667 52.6128 9.44333 52.9582 10.05C53.3035 10.6567 53.4762 11.352 53.4762 12.136C53.4762 12.92 53.2988 13.6153 52.9442 14.222C52.5895 14.8287 52.1042 15.3 51.4882 15.636C50.8815 15.9627 50.2095 16.126 49.4722 16.126ZM49.4722 14.74C49.8828 14.74 50.2655 14.642 50.6202 14.446C50.9842 14.25 51.2782 13.956 51.5022 13.564C51.7262 13.172 51.8382 12.696 51.8382 12.136C51.8382 11.576 51.7308 11.1047 51.5162 10.722C51.3015 10.33 51.0168 10.036 50.6622 9.84C50.3075 9.644 49.9248 9.546 49.5142 9.546C49.1035 9.546 48.7208 9.644 48.3662 9.84C48.0208 10.036 47.7455 10.33 47.5402 10.722C47.3348 11.1047 47.2322 11.576 47.2322 12.136C47.2322 12.9667 47.4422 13.6107 47.8622 14.068C48.2915 14.516 48.8282 14.74 49.4722 14.74ZM58.3999 16.126C57.6719 16.126 57.0139 15.9627 56.4259 15.636C55.8379 15.3 55.3759 14.8333 55.0399 14.236C54.7039 13.6293 54.5359 12.9293 54.5359 12.136C54.5359 11.352 54.7086 10.6567 55.0539 10.05C55.3992 9.44333 55.8706 8.97667 56.4679 8.65C57.0652 8.32333 57.7326 8.16 58.4699 8.16C59.2072 8.16 59.8746 8.32333 60.4719 8.65C61.0692 8.97667 61.5406 9.44333 61.8859 10.05C62.2312 10.6567 62.4039 11.352 62.4039 12.136C62.4039 12.92 62.2266 13.6153 61.8719 14.222C61.5172 14.8287 61.0319 15.3 60.4159 15.636C59.8092 15.9627 59.1372 16.126 58.3999 16.126ZM58.3999 14.74C58.8106 14.74 59.1932 14.642 59.5479 14.446C59.9119 14.25 60.2059 13.956 60.4299 13.564C60.6539 13.172 60.7659 12.696 60.7659 12.136C60.7659 11.576 60.6586 11.1047 60.4439 10.722C60.2292 10.33 59.9446 10.036 59.5899 9.84C59.2352 9.644 58.8526 9.546 58.4419 9.546C58.0312 9.546 57.6486 9.644 57.2939 9.84C56.9486 10.036 56.6732 10.33 56.4679 10.722C56.2626 11.1047 56.1599 11.576 56.1599 12.136C56.1599 12.9667 56.3699 13.6107 56.7899 14.068C57.2192 14.516 57.7559 14.74 58.3999 14.74ZM67.0896 8.16C67.687 8.16 68.2143 8.28133 68.6716 8.524C69.1383 8.75733 69.5023 9.05133 69.7636 9.406V8.286H71.3736V16.126C71.3736 16.8353 71.2243 17.4653 70.9256 18.016C70.627 18.576 70.193 19.0147 69.6236 19.332C69.0636 19.6493 68.3916 19.808 67.6076 19.808C66.5623 19.808 65.6943 19.5607 65.0036 19.066C64.313 18.5807 63.921 17.918 63.8276 17.078H65.4096C65.531 17.4793 65.7876 17.8013 66.1796 18.044C66.581 18.296 67.057 18.422 67.6076 18.422C68.2516 18.422 68.7696 18.226 69.1616 17.834C69.563 17.442 69.7636 16.8727 69.7636 16.126V14.838C69.493 15.202 69.1243 15.51 68.6576 15.762C68.2003 16.0047 67.6776 16.126 67.0896 16.126C66.4176 16.126 65.8016 15.958 65.2416 15.622C64.691 15.2767 64.2523 14.8007 63.9256 14.194C63.6083 13.578 63.4496 12.8827 63.4496 12.108C63.4496 11.3333 63.6083 10.6473 63.9256 10.05C64.2523 9.45267 64.691 8.99067 65.2416 8.664C65.8016 8.328 66.4176 8.16 67.0896 8.16ZM69.7636 12.136C69.7636 11.604 69.6516 11.142 69.4276 10.75C69.213 10.358 68.9283 10.0593 68.5736 9.854C68.219 9.64867 67.8363 9.546 67.4256 9.546C67.015 9.546 66.6323 9.64867 66.2776 9.854C65.923 10.05 65.6336 10.344 65.4096 10.736C65.195 11.1187 65.0876 11.576 65.0876 12.108C65.0876 12.64 65.195 13.1067 65.4096 13.508C65.6336 13.9093 65.923 14.2173 66.2776 14.432C66.6416 14.6373 67.0243 14.74 67.4256 14.74C67.8363 14.74 68.219 14.6373 68.5736 14.432C68.9283 14.2267 69.213 13.928 69.4276 13.536C69.6516 13.1347 69.7636 12.668 69.7636 12.136ZM75.0659 5.64V16H73.4699V5.64H75.0659ZM84.2313 11.954C84.2313 12.2433 84.2127 12.5047 84.1753 12.738H78.2813C78.328 13.354 78.5567 13.8487 78.9673 14.222C79.378 14.5953 79.882 14.782 80.4793 14.782C81.338 14.782 81.9447 14.4227 82.2993 13.704H84.0213C83.788 14.4133 83.3633 14.9967 82.7473 15.454C82.1407 15.902 81.3847 16.126 80.4793 16.126C79.742 16.126 79.0793 15.9627 78.4913 15.636C77.9127 15.3 77.4553 14.8333 77.1193 14.236C76.7927 13.6293 76.6293 12.9293 76.6293 12.136C76.6293 11.3427 76.788 10.6473 77.1053 10.05C77.432 9.44333 77.8847 8.97667 78.4633 8.65C79.0513 8.32333 79.7233 8.16 80.4793 8.16C81.2073 8.16 81.856 8.31867 82.4253 8.636C82.9947 8.95333 83.438 9.40133 83.7553 9.98C84.0727 10.5493 84.2313 11.2073 84.2313 11.954ZM82.5653 11.45C82.556 10.862 82.346 10.3907 81.9353 10.036C81.5247 9.68133 81.016 9.504 80.4093 9.504C79.8587 9.504 79.3873 9.68133 78.9953 10.036C78.6033 10.3813 78.37 10.8527 78.2953 11.45H82.5653Z" fill="#111827"/>
<defs>
<clipPath id="clip0_109_1457">
<rect width="24" height="24" fill="white"/>
</clipPath>
</defs>
</svg>
