<svg width="18" height="19" viewBox="0 0 18 19" fill="none" xmlns="http://www.w3.org/2000/svg">
<path d="M9.2775 2.11263L16.0275 4.81261C16.29 4.91761 16.5 5.2326 16.5 5.5101V8.00011C16.5 8.41261 16.1625 8.75011 15.75 8.75011H2.25C1.8375 8.75011 1.5 8.41261 1.5 8.00011V5.5101C1.5 5.2326 1.71 4.91761 1.9725 4.81261L8.7225 2.11263C8.8725 2.05263 9.1275 2.05263 9.2775 2.11263Z" stroke="#191825" stroke-opacity="0.75" stroke-width="1.125" stroke-miterlimit="10" stroke-linecap="round" stroke-linejoin="round"/>
<path d="M16.5 17H1.5V14.75C1.5 14.3375 1.8375 14 2.25 14H15.75C16.1625 14 16.5 14.3375 16.5 14.75V17Z" stroke="#191825" stroke-opacity="0.75" stroke-width="1.125" stroke-miterlimit="10" stroke-linecap="round" stroke-linejoin="round"/>
<path d="M3 14V8.75" stroke="#191825" stroke-opacity="0.75" stroke-width="1.125" stroke-miterlimit="10" stroke-linecap="round" stroke-linejoin="round"/>
<path d="M6 14V8.75" stroke="#191825" stroke-opacity="0.75" stroke-width="1.125" stroke-miterlimit="10" stroke-linecap="round" stroke-linejoin="round"/>
<path d="M9 14V8.75" stroke="#191825" stroke-opacity="0.75" stroke-width="1.125" stroke-miterlimit="10" stroke-linecap="round" stroke-linejoin="round"/>
<path d="M12 14V8.75" stroke="#191825" stroke-opacity="0.75" stroke-width="1.125" stroke-miterlimit="10" stroke-linecap="round" stroke-linejoin="round"/>
<path d="M15 14V8.75" stroke="#191825" stroke-opacity="0.75" stroke-width="1.125" stroke-miterlimit="10" stroke-linecap="round" stroke-linejoin="round"/>
<path d="M0.75 17H17.25" stroke="#191825" stroke-opacity="0.75" stroke-width="1.125" stroke-miterlimit="10" stroke-linecap="round" stroke-linejoin="round"/>
<path d="M9 6.875C9.62132 6.875 10.125 6.37132 10.125 5.75C10.125 5.12868 9.62132 4.625 9 4.625C8.37868 4.625 7.875 5.12868 7.875 5.75C7.875 6.37132 8.37868 6.875 9 6.875Z" stroke="#191825" stroke-opacity="0.75" stroke-width="1.125" stroke-miterlimit="10" stroke-linecap="round" stroke-linejoin="round"/>
</svg>
