<svg width="18" height="19" viewBox="0 0 18 19" fill="none" xmlns="http://www.w3.org/2000/svg">
<g clip-path="url(#clip0_0_1784)">
<path d="M8.87189 7.18639C8.91363 7.19967 8.95691 7.20634 9.00019 7.20634C9.04348 7.20634 9.08676 7.19967 9.1285 7.18639C9.98574 6.91316 10.5617 6.12479 10.5617 5.22464C10.5617 4.32435 9.98569 3.53593 9.1284 3.26284C9.04503 3.23627 8.95541 3.23627 8.87194 3.26284C8.0146 3.53588 7.43857 4.3243 7.43857 5.22464C7.43857 6.12474 8.01455 6.91311 8.87189 7.18639ZM9.00019 4.11684C9.43379 4.31045 9.71669 4.74001 9.71669 5.22459C9.71669 5.70903 9.43384 6.13859 9.00019 6.33234C8.5665 6.13859 8.2836 5.70908 8.2836 5.22459C8.2836 4.74001 8.5665 4.31045 9.00019 4.11684ZM13.3511 5.98569C13.3511 5.75232 13.5402 5.56317 13.7736 5.56317H14.0632C14.2965 5.56317 14.4857 5.75232 14.4857 5.98569C14.4857 6.21906 14.2965 6.4082 14.0632 6.4082H13.7736C13.5402 6.4082 13.3511 6.21906 13.3511 5.98569ZM12.0766 2.90891C11.9117 2.74385 11.9117 2.47635 12.0767 2.31138L12.2815 2.10669C12.4466 1.94172 12.7141 1.94182 12.879 2.10683C13.044 2.2719 13.044 2.5394 12.8789 2.70437L12.6741 2.90905C12.5916 2.99149 12.4835 3.03276 12.3754 3.03276C12.2673 3.03271 12.1591 2.99145 12.0766 2.90891ZM8.57758 1.21208V0.922518C8.57758 0.689194 8.76673 0.5 9.0001 0.5C9.23347 0.5 9.42262 0.689194 9.42262 0.922518V1.21208C9.42262 1.44541 9.23347 1.6346 9.0001 1.6346C8.76673 1.6346 8.57758 1.44541 8.57758 1.21208ZM14.8498 16.7617C14.8498 17.7202 14.07 18.5 13.1116 18.5H10.3158C10.0824 18.5 9.8933 18.3109 9.8933 18.0775C9.8933 17.8441 10.0824 17.655 10.3158 17.655H13.1116C13.6041 17.655 14.0048 17.2542 14.0048 16.7617C14.0048 16.2692 13.6041 15.8686 13.1116 15.8686H4.88868C4.39616 15.8686 3.99543 16.2692 3.99543 16.7617C3.99543 17.2542 4.39616 17.655 4.88868 17.655H7.55364L9.36741 16.4131C9.55998 16.2813 9.82293 16.3305 9.95475 16.523C10.0866 16.7156 10.0374 16.9786 9.84481 17.1104L7.9231 18.4262C7.85278 18.4743 7.76959 18.5 7.68443 18.5H4.88868C3.93017 18.5 3.15039 17.7203 3.15039 16.7618C3.15039 15.8033 3.93017 15.0236 4.88868 15.0236H8.57763V10.6349C8.57763 10.4016 8.76678 10.2124 9.00015 10.2124C9.23352 10.2124 9.42267 10.4016 9.42267 10.6349V15.0236H13.1115C14.07 15.0235 14.8498 15.8033 14.8498 16.7617ZM3.2571 11.8737C3.2571 10.7871 3.87576 9.77783 4.99919 9.03194C6.06933 8.32141 7.48406 7.93007 8.98278 7.93007C10.4815 7.93007 11.8963 8.32136 12.9665 9.03194C14.0898 9.77783 14.7085 10.7871 14.7085 11.8737C14.7085 12.1071 14.5194 12.2962 14.286 12.2962H10.5592C10.3258 12.2962 10.1367 12.1071 10.1367 11.8737V10.6349C10.1367 10.4015 10.3258 10.2124 10.5592 10.2124C10.7926 10.2124 10.9817 10.4015 10.9817 10.6349V11.4512H13.8174C13.6772 10.8131 13.2213 10.2155 12.499 9.73591C11.5658 9.11631 10.317 8.7751 8.98273 8.7751C7.64847 8.7751 6.39974 9.11635 5.46659 9.73591C4.74427 10.2155 4.28832 10.8131 4.14819 11.4512H6.98389V10.6349C6.98389 10.4015 7.17304 10.2124 7.40641 10.2124C7.63978 10.2124 7.82893 10.4015 7.82893 10.6349V11.8737C7.82893 12.1071 7.63978 12.2962 7.40641 12.2962H3.67962C3.44625 12.2962 3.2571 12.107 3.2571 11.8737ZM3.51446 5.98569C3.51446 5.75232 3.70361 5.56317 3.93698 5.56317H4.22654C4.45991 5.56317 4.64906 5.75232 4.64906 5.98569C4.64906 6.21906 4.45991 6.4082 4.22654 6.4082H3.93698C3.70361 6.4082 3.51446 6.21906 3.51446 5.98569ZM5.1212 2.70427C4.95618 2.53926 4.95618 2.27176 5.1212 2.10674C5.28622 1.94172 5.55372 1.94172 5.71873 2.10674L5.92342 2.31143C6.08844 2.47644 6.08844 2.74394 5.92342 2.90896C5.84094 2.99145 5.73277 3.03271 5.62465 3.03271C5.51654 3.03271 5.40842 2.99145 5.32589 2.90896L5.1212 2.70427Z" fill="#191825" fill-opacity="0.75"/>
</g>
<defs>
<clipPath id="clip0_0_1784">
<rect width="18" height="18" fill="white" transform="translate(0 0.5)"/>
</clipPath>
</defs>
</svg>
