<svg width="18" height="19" viewBox="0 0 18 19" fill="none" xmlns="http://www.w3.org/2000/svg">
<path d="M6.60758 2L3.89258 4.7225" stroke="#191825" stroke-opacity="0.75" stroke-width="1.125" stroke-miterlimit="10" stroke-linecap="round" stroke-linejoin="round"/>
<path d="M11.3926 2L14.1076 4.7225" stroke="#191825" stroke-opacity="0.75" stroke-width="1.125" stroke-miterlimit="10" stroke-linecap="round" stroke-linejoin="round"/>
<path d="M1.5 6.38745C1.5 4.99995 2.2425 4.88745 3.165 4.88745H14.835C15.7575 4.88745 16.5 4.99995 16.5 6.38745C16.5 7.99995 15.7575 7.88745 14.835 7.88745H3.165C2.2425 7.88745 1.5 7.99995 1.5 6.38745Z" stroke="#191825" stroke-opacity="0.75" stroke-width="1.125"/>
<path d="M7.31982 11V13.6625" stroke="#191825" stroke-opacity="0.75" stroke-width="1.125" stroke-linecap="round"/>
<path d="M10.77 11V13.6625" stroke="#191825" stroke-opacity="0.75" stroke-width="1.125" stroke-linecap="round"/>
<path d="M2.625 8L3.6825 14.48C3.9225 15.935 4.5 17 6.645 17H11.1675C13.5 17 13.845 15.98 14.115 14.57L15.375 8" stroke="#191825" stroke-opacity="0.75" stroke-width="1.125" stroke-linecap="round"/>
</svg>
