<svg width="18" height="19" viewBox="0 0 18 19" fill="none" xmlns="http://www.w3.org/2000/svg">
<path d="M16.5 7.25013V11.7501C16.5 13.6251 16.125 14.9376 15.285 15.7851L10.5 11.0001L16.2975 5.20264C16.4325 5.79514 16.5 6.47013 16.5 7.25013Z" stroke="#191825" stroke-opacity="0.75" stroke-width="1.125" stroke-linecap="round" stroke-linejoin="round"/>
<path d="M16.2975 5.2025L4.70249 16.7975C2.44499 16.28 1.5 14.72 1.5 11.75V7.25C1.5 3.5 3 2 6.75 2H11.25C14.22 2 15.78 2.945 16.2975 5.2025Z" stroke="#191825" stroke-opacity="0.75" stroke-width="1.125" stroke-linecap="round" stroke-linejoin="round"/>
<path d="M15.2851 15.785C14.4376 16.625 13.1251 17 11.2501 17H6.75014C5.97014 17 5.29514 16.9325 4.70264 16.7975L10.5001 11L15.2851 15.785Z" stroke="#191825" stroke-opacity="0.75" stroke-width="1.125" stroke-linecap="round" stroke-linejoin="round"/>
<path d="M4.67995 6.48504C5.18995 4.28754 8.48996 4.28754 8.99996 6.48504C9.29246 7.77504 8.48245 8.87004 7.76995 9.54504C7.25245 10.04 6.43496 10.04 5.90996 9.54504C5.19746 8.87004 4.37995 7.77504 4.67995 6.48504Z" stroke="#191825" stroke-opacity="0.75" stroke-width="1.125"/>
<path d="M6.82108 7.0249H6.82781" stroke="#191825" stroke-opacity="0.75" stroke-width="1.5" stroke-linecap="round" stroke-linejoin="round"/>
</svg>
