<svg width="18" height="19" viewBox="0 0 18 19" fill="none" xmlns="http://www.w3.org/2000/svg">
<path d="M9.12017 8.6525C9.04517 8.645 8.95517 8.645 8.87267 8.6525C7.08767 8.5925 5.67017 7.13 5.67017 5.33C5.67017 3.4925 7.15517 2 9.00017 2C10.8377 2 12.3302 3.4925 12.3302 5.33C12.3227 7.13 10.9052 8.5925 9.12017 8.6525Z" stroke="#191825" stroke-opacity="0.75" stroke-width="1.125" stroke-linecap="round" stroke-linejoin="round"/>
<path d="M5.37028 11.42C3.55528 12.635 3.55528 14.615 5.37028 15.8225C7.43278 17.2025 10.8153 17.2025 12.8778 15.8225C14.6928 14.6075 14.6928 12.6275 12.8778 11.42C10.8228 10.0475 7.44028 10.0475 5.37028 11.42Z" stroke="#191825" stroke-opacity="0.75" stroke-width="1.125" stroke-linecap="round" stroke-linejoin="round"/>
</svg>
