<svg width="16" height="17" viewBox="0 0 16 17" fill="none" xmlns="http://www.w3.org/2000/svg">
<path d="M11.9602 9.87208C11.7937 10.0334 11.7173 10.2666 11.7552 10.4954L12.3265 13.6571C12.3747 13.9251 12.2616 14.1962 12.0373 14.3511C11.8175 14.5118 11.5251 14.531 11.2854 14.4025L8.43929 12.9181C8.34033 12.8654 8.23044 12.8371 8.11798 12.8339H7.94384C7.88343 12.8429 7.82431 12.8622 7.77033 12.8917L4.92354 14.3832C4.78281 14.4539 4.62344 14.479 4.46729 14.4539C4.08686 14.382 3.83303 14.0195 3.89536 13.6372L4.46729 10.4755C4.5052 10.2448 4.42873 10.0102 4.26229 9.84637L1.94181 7.59722C1.74774 7.40893 1.68026 7.12618 1.76895 6.87107C1.85506 6.61659 2.07483 6.43087 2.34023 6.3891L5.53403 5.92578C5.77694 5.90072 5.99029 5.75292 6.09953 5.53443L7.50686 2.64908C7.54027 2.58482 7.58333 2.5257 7.63538 2.47558L7.69322 2.43059C7.72342 2.39718 7.75812 2.36955 7.79668 2.34705L7.86672 2.32135L7.97597 2.27637H8.24651C8.48813 2.30143 8.70084 2.44602 8.81201 2.66194L10.238 5.53443C10.3408 5.74456 10.5406 5.89044 10.7713 5.92578L13.9651 6.3891C14.235 6.42766 14.4606 6.61402 14.5499 6.87107C14.6341 7.12875 14.5615 7.41151 14.3636 7.59722L11.9602 9.87208Z" fill="#FFCD6B"/>
</svg>
